<svg width="1024" height="1024" viewBox="0 0 1024 1024" fill="none" xmlns="http://www.w3.org/2000/svg">
<defs>
  <filter id="glow" filterUnits="userSpaceOnUse">
    <feGaussianBlur stdDeviation="6" result="blur"/>
    <feMerge>
      <feMergeNode in="blur"/>
      <feMergeNode in="SourceGraphic"/>
    </feMerge>
  </filter>
</defs>

    <g filter="url(#glow)">
      <path d="M256,360 C256,220 370,120 512,120 C654,120 768,220 768,360 V650 C768,720 726,768 682,768 C642,768 618,744 592,720 C568,698 544,684 512,684 C480,684 456,698 432,720 C406,744 382,768 342,768 C298,768 256,720 256,650 Z" stroke="#00FF5F" stroke-width="22" stroke-linecap="round" stroke-linejoin="round" fill="none" opacity="0.8"/>
      <path d="M256,360 C256,220 370,120 512,120 C654,120 768,220 768,360 V650 C768,720 726,768 682,768 C642,768 618,744 592,720 C568,698 544,684 512,684 C480,684 456,698 432,720 C406,744 382,768 342,768 C298,768 256,720 256,650 Z" stroke="#00FF5F" stroke-width="10" stroke-linecap="round" stroke-linejoin="round" fill="none"/>
    </g>
    <rect x="322" y="290" width="380" height="170" rx="44" ry="44" fill="rgba(0,0,0,0.0)" stroke="#00FF5F" stroke-width="18"/><rect x="346" y="310" width="22" height="22" rx="6" fill="#00FF5F" opacity="0.35"/><rect x="386" y="310" width="22" height="22" rx="6" fill="#00FF5F" opacity="0.55"/><rect x="426" y="310" width="22" height="22" rx="6" fill="#00FF5F" opacity="0.75"/><line x1="442" y1="400" x2="522" y2="380" stroke="#00FF5F" stroke-width="10" opacity="0.5" stroke-linecap="round"/><line x1="522" y1="380" x2="602" y2="420" stroke="#00FF5F" stroke-width="10" opacity="0.5" stroke-linecap="round"/><line x1="602" y1="420" x2="682" y2="370" stroke="#00FF5F" stroke-width="10" opacity="0.5" stroke-linecap="round"/><line x1="682" y1="370" x2="762" y2="410" stroke="#00FF5F" stroke-width="10" opacity="0.5" stroke-linecap="round"/><line x1="762" y1="410" x2="842" y2="390" stroke="#00FF5F" stroke-width="10" opacity="0.5" stroke-linecap="round"/><circle cx="442" cy="400" r="10" fill="#00FF5F" /><circle cx="522" cy="380" r="10" fill="#00FF5F" /><circle cx="602" cy="420" r="10" fill="#00FF5F" /><circle cx="682" cy="370" r="10" fill="#00FF5F" /><circle cx="762" cy="410" r="10" fill="#00FF5F" /><circle cx="842" cy="390" r="10" fill="#00FF5F" /><line x1="352" y1="548" x2="672" y2="548" stroke="#00FF5F" stroke-width="8" opacity="0.25"/><line x1="352" y1="584" x2="672" y2="584" stroke="#00FF5F" stroke-width="8" opacity="0.25"/><line x1="352" y1="620" x2="672" y2="620" stroke="#00FF5F" stroke-width="8" opacity="0.25"/><line x1="352" y1="656" x2="672" y2="656" stroke="#00FF5F" stroke-width="8" opacity="0.25"/><line x1="352" y1="692" x2="672" y2="692" stroke="#00FF5F" stroke-width="8" opacity="0.25"/><line x1="368" y1="530" x2="368" y2="710" stroke="#00FF5F" stroke-width="8" opacity="0.18"/><line x1="416" y1="530" x2="416" y2="710" stroke="#00FF5F" stroke-width="8" opacity="0.18"/><line x1="464" y1="530" x2="464" y2="710" stroke="#00FF5F" stroke-width="8" opacity="0.18"/><line x1="512" y1="530" x2="512" y2="710" stroke="#00FF5F" stroke-width="8" opacity="0.18"/><line x1="560" y1="530" x2="560" y2="710" stroke="#00FF5F" stroke-width="8" opacity="0.18"/><line x1="608" y1="530" x2="608" y2="710" stroke="#00FF5F" stroke-width="8" opacity="0.18"/><line x1="656" y1="530" x2="656" y2="710" stroke="#00FF5F" stroke-width="8" opacity="0.18"/><path d="M532,510 L482,610 L552,610 L502,730 L592,610 L522,610 Z" fill="#00FF5F" opacity="0.9"/></svg>